<svg width="27" height="25" viewBox="0 0 27 25" fill="none" xmlns="http://www.w3.org/2000/svg">
<g id="Forma 1 copy">
<g id="Forma 1 copy_2">
<path id="Vector" d="M21.4531 23.6279H21.341C20.7336 23.6279 20.2232 23.1296 20.1792 22.4937C20.1349 21.8269 20.622 21.2463 21.2653 21.2025C21.2906 21.2008 21.317 21.2 21.343 21.2C21.9583 21.2 22.4736 21.6885 22.5193 22.3135C22.5311 22.5613 22.4907 22.9145 22.2359 23.2062L22.23 23.213L22.2243 23.2198C22.0281 23.4528 21.762 23.5933 21.4531 23.6279ZM7.75918 23.6216C7.11041 23.6216 6.58265 23.0801 6.58265 22.4146C6.58265 21.7496 7.11041 21.2085 7.75918 21.2085C8.40795 21.2085 8.93571 21.7496 8.93571 22.4146C8.93571 23.0801 8.40795 23.6216 7.75918 23.6216Z" fill="white"/>
<path id="Vector_2" d="M21.3795 22.6298C21.4244 22.6184 21.4456 22.5975 21.4633 22.5766C21.471 22.5674 21.4788 22.5583 21.4867 22.5493C21.5231 22.5077 21.5264 22.4194 21.5255 22.3747C21.5124 22.2689 21.4218 22.1963 21.3448 22.1963C21.3411 22.1963 21.3372 22.1964 21.3349 22.1965C21.257 22.2019 21.1694 22.3053 21.176 22.4266C21.1853 22.5431 21.2713 22.6298 21.3428 22.6298H21.3795ZM7.76099 22.6234C7.8599 22.6234 7.9403 22.5293 7.9403 22.4137C7.9403 22.2985 7.8599 22.2048 7.76099 22.2048C7.66214 22.2048 7.58168 22.2985 7.58168 22.4137C7.58168 22.5293 7.66214 22.6234 7.76099 22.6234ZM21.5026 24.6242C21.455 24.6242 21.3913 24.6242 21.3428 24.6242C20.2084 24.6242 19.2661 23.715 19.1861 22.5617C19.1063 21.36 20.0011 20.2884 21.1993 20.2067C21.248 20.2034 21.2966 20.2018 21.3448 20.2018C22.4804 20.2018 23.4391 21.1002 23.5166 22.253C23.548 22.8544 23.3721 23.4225 22.9888 23.8613C22.6056 24.3163 22.0779 24.5758 21.5026 24.6242ZM7.76099 24.6179C6.56011 24.6179 5.58723 23.6316 5.58723 22.4137C5.58723 21.1966 6.56011 20.2104 7.76099 20.2104C8.96181 20.2104 9.93474 21.1966 9.93474 22.4137C9.93474 23.6316 8.96181 24.6179 7.76099 24.6179ZM20.7038 17.7709H8.67196C8.24024 17.7709 7.85703 17.4783 7.7448 17.0565L3.82992 2.66681H1.08178C0.554927 2.66681 0.123268 2.22894 0.123268 1.69223C0.123268 1.15637 0.554927 0.717529 1.08178 0.717529H4.54972C4.98053 0.717529 5.36374 1.01005 5.47591 1.43282L9.39085 15.8216H20.0648L23.6117 7.53935H11.788C11.2603 7.53935 10.8286 7.10051 10.8286 6.56477C10.8286 6.02891 11.2603 5.59007 11.788 5.59007H25.0818C25.4014 5.59007 25.7056 5.75245 25.8806 6.02891C26.0565 6.30438 26.0888 6.64547 25.9605 6.95419L21.5825 17.1857C21.4227 17.543 21.087 17.7709 20.7038 17.7709Z" fill="white"/>
</g>
<g id="Stroke Effect">
<path id="Vector_3" d="M21.3794 22.6297C21.4244 22.6184 21.4456 22.5974 21.4633 22.5765C21.471 22.5674 21.4788 22.5582 21.4866 22.5492C21.523 22.5076 21.5263 22.4193 21.5255 22.3747C21.5123 22.2689 21.4218 22.1962 21.3447 22.1962C21.341 22.1962 21.3372 22.1963 21.3348 22.1965C21.2569 22.2018 21.1694 22.3053 21.176 22.4265C21.1853 22.543 21.2712 22.6297 21.3428 22.6297H21.3794ZM7.76094 22.6234C7.85985 22.6234 7.94025 22.5293 7.94025 22.4136C7.94025 22.2985 7.85985 22.2047 7.76094 22.2047C7.6621 22.2047 7.58163 22.2985 7.58163 22.4136C7.58163 22.5293 7.6621 22.6234 7.76094 22.6234ZM21.5026 24.6241C21.455 24.6241 21.3912 24.6241 21.3428 24.6241C20.2084 24.6241 19.266 23.7149 19.1861 22.5616C19.1062 21.3599 20.001 20.2883 21.1992 20.2066C21.248 20.2034 21.2965 20.2018 21.3447 20.2018C22.4803 20.2018 23.4391 21.1001 23.5166 22.2529C23.548 22.8543 23.3721 23.4224 22.9888 23.8613C22.6056 24.3163 22.0779 24.5757 21.5026 24.6241ZM7.76094 24.6178C6.56006 24.6178 5.58719 23.6315 5.58719 22.4136C5.58719 21.1966 6.56006 20.2103 7.76094 20.2103C8.96176 20.2103 9.9347 21.1966 9.9347 22.4136C9.9347 23.6315 8.96176 24.6178 7.76094 24.6178ZM20.7038 17.7708H8.67192C8.2402 17.7708 7.85699 17.4783 7.74475 17.0565L3.82988 2.66675H1.08173C0.554881 2.66675 0.123222 2.22888 0.123222 1.69217C0.123222 1.15631 0.554881 0.717468 1.08173 0.717468H4.54967C4.98048 0.717468 5.36369 1.00999 5.47587 1.43276L9.3908 15.8215H20.0647L23.6117 7.53929H11.788C11.2603 7.53929 10.8286 7.10044 10.8286 6.56471C10.8286 6.02884 11.2603 5.59 11.788 5.59H25.0818C25.4013 5.59 25.7055 5.75239 25.8806 6.02884C26.0565 6.30432 26.0888 6.64541 25.9604 6.95412L21.5824 17.1856C21.4227 17.5429 21.087 17.7708 20.7038 17.7708Z" fill="white"/>
</g>
</g>
</svg>
